<?xml version="1.0" encoding="UTF-8" standalone="no"?>
<!-- Generator: Adobe Illustrator 21.0.0, SVG Export Plug-In . SVG Version: 6.00 Build 0)  -->

<svg
   xmlns:dc="http://purl.org/dc/elements/1.1/"
   xmlns:cc="http://creativecommons.org/ns#"
   xmlns:rdf="http://www.w3.org/1999/02/22-rdf-syntax-ns#"
   xmlns:svg="http://www.w3.org/2000/svg"
   xmlns="http://www.w3.org/2000/svg"
   xmlns:sodipodi="http://sodipodi.sourceforge.net/DTD/sodipodi-0.dtd"
   xmlns:inkscape="http://www.inkscape.org/namespaces/inkscape"
   version="1.1"
   id="Layer_1"
   x="0px"
   y="0px"
   viewBox="0 0 52.799999 52.900002"
   xml:space="preserve"
   sodipodi:docname="wise-logo-color.svg"
   width="52.799999"
   height="52.900002"
   inkscape:version="0.92.3 (2405546, 2018-03-11)"><metadata
   id="metadata38"><rdf:RDF><cc:Work
       rdf:about=""><dc:format>image/svg+xml</dc:format><dc:type
         rdf:resource="http://purl.org/dc/dcmitype/StillImage" /><dc:title></dc:title></cc:Work></rdf:RDF></metadata><defs
   id="defs36" /><sodipodi:namedview
   pagecolor="#ffffff"
   bordercolor="#666666"
   borderopacity="1"
   objecttolerance="10"
   gridtolerance="10"
   guidetolerance="10"
   inkscape:pageopacity="0"
   inkscape:pageshadow="2"
   inkscape:window-width="1207"
   inkscape:window-height="632"
   id="namedview34"
   showgrid="false"
   fit-margin-top="0"
   fit-margin-left="0"
   fit-margin-right="0"
   fit-margin-bottom="0"
   inkscape:zoom="8"
   inkscape:cx="12.945692"
   inkscape:cy="6.3243991"
   inkscape:window-x="324"
   inkscape:window-y="218"
   inkscape:window-maximized="0"
   inkscape:current-layer="g31" />
<style
   type="text/css"
   id="style2">
	.st0{fill:#6B11FF;}
	.st1{fill:url(#SVGID_1_);}
	.st2{fill:#FFFFFF;}
</style>
<g
   id="g31"
   transform="translate(-179.49999)">
	<circle
   class="st0"
   cx="205.89999"
   cy="26.4"
   r="26.4"
   id="circle4"
   style="fill:#6b11ff" />
	<linearGradient
   id="SVGID_1_"
   gradientUnits="userSpaceOnUse"
   x1="208.2653"
   y1="28.497"
   x2="219.4337"
   y2="50.230099">
		<stop
   offset="0"
   style="stop-color:#000000;stop-opacity:0.4"
   id="stop6" />
		<stop
   offset="1"
   style="stop-color:#000000;stop-opacity:0"
   id="stop8" />
	</linearGradient>
	<path
   class="st1"
   d="M 231.2,34.1 222,20.3 192.2,36.3 203,52.7 c 0.9,0.1 1.9,0.2 2.9,0.2 11.9,-0.1 22,-7.9 25.3,-18.8 z"
   id="path11"
   inkscape:connector-curvature="0"
   style="fill:url(#SVGID_1_)" />
	<g
   id="g17">
		<polygon
   class="st0"
   points="193.3,33.3 196.8,38.7 206,32.3 215.3,38.7 218.8,33.3 206,24.5 "
   id="polygon13"
   style="fill:#6b11ff" />
		<polygon
   class="st0"
   points="218.8,20.9 206,12.1 193.3,20.9 196.8,26.3 206,19.9 215.3,26.3 "
   id="polygon15"
   style="fill:#6b11ff" />
	</g>
	<path
   class="st2"
   d="m 206,12.1 12.7,8.8 -3.5,5.3 -9.3,-6.3 -9.3,6.4 -3.5,-5.4 12.9,-8.8 m 0,12.4 12.7,8.8 -3.5,5.3 -9.3,-6.3 -9.3,6.3 -3.5,-5.3 12.9,-8.8 m 0,-15.3 -1.4,1 -12.7,8.8 -1.9,1.3 1.3,2 3.5,5.4 0.8,1.2 -3.6,2.5 -1.9,1.3 1.3,2 3.5,5.3 1.3,2.1 2,-1.4 7.9,-5.4 7.9,5.4 2,1.4 1.3,-2.1 3.5,-5.3 1.3,-2 -1.9,-1.3 -3.6,-2.5 0.8,-1.3 3.5,-5.3 1.3,-2 -1.9,-1.3 -12.7,-8.8 z"
   id="path19"
   inkscape:connector-curvature="0"
   style="fill:#ffffff" />
	
</g>
</svg>