<?xml version="1.0" encoding="UTF-8" standalone="no"?>
<svg
   xmlns:dc="http://purl.org/dc/elements/1.1/"
   xmlns:cc="http://creativecommons.org/ns#"
   xmlns:rdf="http://www.w3.org/1999/02/22-rdf-syntax-ns#"
   xmlns:svg="http://www.w3.org/2000/svg"
   xmlns="http://www.w3.org/2000/svg"
   height="54.799999"
   width="54.799999"
   xml:space="preserve"
   viewBox="0 0 54.799999 54.8"
   y="0px"
   x="0px"
   id="Layer_1"
   version="1.1"><metadata
   id="metadata38"><rdf:RDF><cc:Work
       rdf:about=""><dc:format>image/svg+xml</dc:format><dc:type
         rdf:resource="http://purl.org/dc/dcmitype/StillImage" /><dc:title></dc:title></cc:Work></rdf:RDF></metadata><defs
   id="defs36" />
<style
   id="style2"
   type="text/css">
	.st0{fill:#6B11FF;}
	.st1{fill:url(#SVGID_1_);}
	.st2{fill:#FFFFFF;}
</style>
<g
   transform="translate(-178.49999,1)"
   id="g31">
	<circle
   style="fill:none;fill-opacity:1;stroke:#ffffff;stroke-width:2;stroke-miterlimit:4;stroke-dasharray:none;stroke-opacity:1;paint-order:stroke markers fill"
   id="circle4"
   r="26.4"
   cy="26.4"
   cx="205.89999"
   class="st0" />
	<linearGradient
   y2="50.230099"
   x2="219.4337"
   y1="28.497"
   x1="208.2653"
   gradientUnits="userSpaceOnUse"
   id="SVGID_1_">
		<stop
   id="stop6"
   style="stop-color:#000000;stop-opacity:0.4"
   offset="0" />
		<stop
   id="stop8"
   style="stop-color:#000000;stop-opacity:0"
   offset="1" />
	</linearGradient>
	
	<g
   style="fill:none"
   transform="translate(-0.1)"
   id="g17">
		<polygon
   style="fill:none"
   id="polygon13"
   points="215.3,38.7 218.8,33.3 206,24.5 193.3,33.3 196.8,38.7 206,32.3 "
   class="st0" />
		<polygon
   style="fill:none"
   id="polygon15"
   points="196.8,26.3 206,19.9 215.3,26.3 218.8,20.9 206,12.1 193.3,20.9 "
   class="st0" />
	</g>
	<path
   style="fill:#ffffff"
   id="path19"
   d="m 206,12.1 12.7,8.8 -3.5,5.3 -9.3,-6.3 -9.3,6.4 -3.5,-5.4 12.9,-8.8 m 0,12.4 12.7,8.8 -3.5,5.3 -9.3,-6.3 -9.3,6.3 -3.5,-5.3 12.9,-8.8 m 0,-15.3 -1.4,1 -12.7,8.8 -1.9,1.3 1.3,2 3.5,5.4 0.8,1.2 -3.6,2.5 -1.9,1.3 1.3,2 3.5,5.3 1.3,2.1 2,-1.4 7.9,-5.4 7.9,5.4 2,1.4 1.3,-2.1 3.5,-5.3 1.3,-2 -1.9,-1.3 -3.6,-2.5 0.8,-1.3 3.5,-5.3 1.3,-2 -1.9,-1.3 -12.7,-8.8 z"
   class="st2" />
	
</g>
</svg>