<?xml version="1.0" encoding="UTF-8" standalone="no"?>
<svg
   xmlns:dc="http://purl.org/dc/elements/1.1/"
   xmlns:cc="http://creativecommons.org/ns#"
   xmlns:rdf="http://www.w3.org/1999/02/22-rdf-syntax-ns#"
   xmlns:svg="http://www.w3.org/2000/svg"
   xmlns="http://www.w3.org/2000/svg"
   xmlns:xlink="http://www.w3.org/1999/xlink"
   xmlns:sodipodi="http://sodipodi.sourceforge.net/DTD/sodipodi-0.dtd"
   xmlns:inkscape="http://www.inkscape.org/namespaces/inkscape"
   width="312pt"
   height="81.539154pt"
   viewBox="0 0 312 81.539154"
   version="1.2"
   id="svg219"
   sodipodi:docname="print_v1.svg"
   inkscape:version="0.92.3 (2405546, 2018-03-11)">
  <metadata
     id="metadata223">
    <rdf:RDF>
      <cc:Work
         rdf:about="">
        <dc:format>image/svg+xml</dc:format>
        <dc:type
           rdf:resource="http://purl.org/dc/dcmitype/StillImage" />
        <dc:title></dc:title>
      </cc:Work>
    </rdf:RDF>
  </metadata>
  <sodipodi:namedview
     pagecolor="#ffffff"
     bordercolor="#666666"
     borderopacity="1"
     objecttolerance="10"
     gridtolerance="10"
     guidetolerance="10"
     inkscape:pageopacity="0"
     inkscape:pageshadow="2"
     inkscape:window-width="1853"
     inkscape:window-height="1025"
     id="namedview221"
     showgrid="false"
     inkscape:zoom="3.2884615"
     inkscape:cx="141.14371"
     inkscape:cy="64.620038"
     inkscape:window-x="67"
     inkscape:window-y="27"
     inkscape:window-maximized="1"
     inkscape:current-layer="surface552" />
  <defs
     id="defs148">
    <filter
       id="alpha"
       filterUnits="objectBoundingBox"
       x="0%"
       y="0%"
       width="100%"
       height="100%">
      <feColorMatrix
         type="matrix"
         in="SourceGraphic"
         values="0 0 0 0 1 0 0 0 0 1 0 0 0 0 1 0 0 0 1 0"
         id="feColorMatrix2" />
    </filter>
    <clipPath
       id="clip1">
      <rect
         x="0"
         y="0"
         width="29"
         height="10"
         id="rect5" />
    </clipPath>
    <g
       id="surface558"
       clip-path="url(#clip1)">
      <rect
         x="0"
         y="0"
         width="29"
         height="10"
         style="fill:rgb(0%,0%,0%);fill-opacity:0.8;stroke:none;"
         id="rect8" />
    </g>
    <mask
       id="mask0">
      <g
         filter="url(#alpha)"
         id="g13">
        <use
           xlink:href="#surface558"
           id="use11" />
      </g>
    </mask>
    <clipPath
       id="clip2">
      <rect
         x="0"
         y="0"
         width="29"
         height="10"
         id="rect16" />
    </clipPath>
    <g
       id="surface557"
       clip-path="url(#clip2)">
      <path
         style=" stroke:none;fill-rule:nonzero;fill:rgb(89.01825%,10.980225%,47.450256%);fill-opacity:1;"
         d="M 5.382812 0 C 3.863281 0 2.597656 0.695312 1.710938 2.027344 C 1.203125 2.847656 0.886719 3.734375 0.886719 4.746094 C 0.886719 5.824219 1.265625 6.835938 1.898438 7.722656 C 2.851562 8.863281 4.050781 9.496094 5.507812 9.496094 L 24.371094 9.496094 C 25.765625 9.429688 26.839844 8.925781 27.726562 7.914062 C 28.613281 7.027344 28.992188 5.949219 28.992188 4.746094 C 28.992188 3.355469 28.484375 2.152344 27.410156 1.265625 C 26.585938 0.441406 25.574219 0 24.308594 0 Z M 5.382812 0 "
         id="path19" />
    </g>
    <clipPath
       id="clip3">
      <rect
         x="0"
         y="0"
         width="10"
         height="28"
         id="rect22" />
    </clipPath>
    <g
       id="surface564"
       clip-path="url(#clip3)">
      <rect
         x="0"
         y="0"
         width="10"
         height="28"
         style="fill:rgb(0%,0%,0%);fill-opacity:0.8;stroke:none;"
         id="rect25" />
    </g>
    <mask
       id="mask1">
      <g
         filter="url(#alpha)"
         id="g30">
        <use
           xlink:href="#surface564"
           id="use28" />
      </g>
    </mask>
    <clipPath
       id="clip4">
      <rect
         x="0"
         y="0"
         width="10"
         height="28"
         id="rect33" />
    </clipPath>
    <g
       id="surface563"
       clip-path="url(#clip4)">
      <path
         style=" stroke:none;fill-rule:nonzero;fill:rgb(0%,49.01886%,72.940063%);fill-opacity:1;"
         d="M 5.238281 0 C 3.972656 0 2.832031 0.441406 1.945312 1.328125 C 0.996094 2.214844 0.488281 3.355469 0.488281 4.746094 L 0.488281 23.105469 C 0.488281 23.992188 0.804688 24.75 1.375 25.507812 C 2.324219 26.648438 3.589844 27.28125 5.238281 27.28125 C 6.375 27.28125 7.390625 26.964844 8.277344 26.332031 C 9.414062 25.445312 9.984375 24.371094 9.984375 23.105469 L 9.984375 4.746094 C 9.984375 3.226562 9.414062 2.027344 8.277344 1.140625 C 7.390625 0.378906 6.375 0 5.238281 0 Z M 5.238281 0 "
         id="path36" />
    </g>
    <clipPath
       id="clip5">
      <rect
         x="0"
         y="0"
         width="10"
         height="11"
         id="rect39" />
    </clipPath>
    <g
       id="surface570"
       clip-path="url(#clip5)">
      <rect
         x="0"
         y="0"
         width="10"
         height="11"
         style="fill:rgb(0%,0%,0%);fill-opacity:0.8;stroke:none;"
         id="rect42" />
    </g>
    <mask
       id="mask2">
      <g
         filter="url(#alpha)"
         id="g47">
        <use
           xlink:href="#surface570"
           id="use45" />
      </g>
    </mask>
    <clipPath
       id="clip6">
      <rect
         x="0"
         y="0"
         width="10"
         height="11"
         id="rect50" />
    </clipPath>
    <g
       id="surface569"
       clip-path="url(#clip6)">
      <path
         style=" stroke:none;fill-rule:nonzero;fill:rgb(30.587769%,76.469421%,87.841797%);fill-opacity:1;"
         d="M 5.230469 0.9375 C 3.835938 0.9375 2.636719 1.445312 1.683594 2.519531 C 0.863281 3.40625 0.417969 4.480469 0.417969 5.746094 C 0.546875 6.570312 0.671875 7.265625 0.925781 7.773438 C 1.179688 8.28125 1.621094 8.851562 2.191406 9.484375 C 3.078125 10.117188 4.089844 10.496094 5.230469 10.496094 C 6.621094 10.496094 7.824219 9.988281 8.710938 8.976562 C 9.597656 8.027344 9.976562 6.949219 9.976562 5.746094 C 9.976562 4.609375 9.660156 3.660156 8.964844 2.835938 C 7.953125 1.570312 6.6875 0.9375 5.230469 0.9375 Z M 5.230469 0.9375 "
         id="path53" />
    </g>
    <clipPath
       id="clip7">
      <rect
         x="0"
         y="0"
         width="11"
         height="11"
         id="rect56" />
    </clipPath>
    <g
       id="surface576"
       clip-path="url(#clip7)">
      <rect
         x="0"
         y="0"
         width="11"
         height="11"
         style="fill:rgb(0%,0%,0%);fill-opacity:0.8;stroke:none;"
         id="rect59" />
    </g>
    <mask
       id="mask3">
      <g
         filter="url(#alpha)"
         id="g64">
        <use
           xlink:href="#surface576"
           id="use62" />
      </g>
    </mask>
    <clipPath
       id="clip8">
      <rect
         x="0"
         y="0"
         width="11"
         height="11"
         id="rect67" />
    </clipPath>
    <g
       id="surface575"
       clip-path="url(#clip8)">
      <path
         style=" stroke:none;fill-rule:nonzero;fill:rgb(89.01825%,10.980225%,47.450256%);fill-opacity:1;"
         d="M 5.476562 0.8125 C 4.210938 0.8125 3.070312 1.257812 2.121094 2.144531 C 1.234375 3.03125 0.730469 4.167969 0.730469 5.5625 C 0.730469 6.320312 0.917969 7.019531 1.171875 7.652344 C 1.488281 8.21875 1.933594 8.726562 2.5 9.234375 C 3.261719 9.804688 4.082031 10.183594 4.96875 10.308594 L 5.476562 10.308594 C 6.617188 10.308594 7.628906 9.929688 8.453125 9.234375 C 9.652344 8.21875 10.222656 7.019531 10.222656 5.5625 C 10.222656 4.550781 9.972656 3.664062 9.402344 2.902344 C 9.085938 2.398438 8.769531 2.082031 8.515625 1.890625 C 7.628906 1.128906 6.617188 0.8125 5.476562 0.8125 Z M 5.476562 0.8125 "
         id="path70" />
    </g>
    <clipPath
       id="clip9">
      <rect
         x="0"
         y="0"
         width="23"
         height="34"
         id="rect73" />
    </clipPath>
    <g
       id="surface582"
       clip-path="url(#clip9)">
      <rect
         x="0"
         y="0"
         width="23"
         height="34"
         style="fill:rgb(0%,0%,0%);fill-opacity:0.8;stroke:none;"
         id="rect76" />
    </g>
    <mask
       id="mask4">
      <g
         filter="url(#alpha)"
         id="g81">
        <use
           xlink:href="#surface582"
           id="use79" />
      </g>
    </mask>
    <clipPath
       id="clip10">
      <rect
         x="0"
         y="0"
         width="23"
         height="34"
         id="rect84" />
    </clipPath>
    <g
       id="surface581"
       clip-path="url(#clip10)">
      <path
         style=" stroke:none;fill-rule:nonzero;fill:rgb(0%,49.01886%,72.940063%);fill-opacity:1;"
         d="M 18.011719 0.203125 C 16.300781 0.203125 15.035156 0.964844 14.148438 2.484375 L 0.792969 26.28125 C 0.414062 26.980469 0.222656 27.738281 0.222656 28.5625 C 0.222656 29.828125 0.667969 30.902344 1.554688 31.851562 C 2.503906 32.804688 3.644531 33.308594 4.972656 33.308594 C 5.859375 33.308594 6.679688 33.054688 7.441406 32.613281 C 8.199219 32.105469 8.832031 31.535156 9.214844 30.777344 L 22.503906 6.976562 C 22.824219 6.34375 22.949219 5.648438 22.949219 5.015625 C 22.949219 4.507812 22.886719 4.066406 22.757812 3.621094 C 22.378906 2.355469 21.621094 1.46875 20.480469 0.835938 C 19.785156 0.394531 19.023438 0.203125 18.136719 0.203125 Z M 18.011719 0.203125 "
         id="path87" />
    </g>
    <clipPath
       id="clip11">
      <rect
         x="0"
         y="0"
         width="24"
         height="34"
         id="rect90" />
    </clipPath>
    <g
       id="surface588"
       clip-path="url(#clip11)">
      <rect
         x="0"
         y="0"
         width="24"
         height="34"
         style="fill:rgb(0%,0%,0%);fill-opacity:0.8;stroke:none;"
         id="rect93" />
    </g>
    <mask
       id="mask5">
      <g
         filter="url(#alpha)"
         id="g98">
        <use
           xlink:href="#surface588"
           id="use96" />
      </g>
    </mask>
    <clipPath
       id="clip12">
      <rect
         x="0"
         y="0"
         width="24"
         height="34"
         id="rect101" />
    </clipPath>
    <g
       id="surface587"
       clip-path="url(#clip12)">
      <path
         style=" stroke:none;fill-rule:nonzero;fill:rgb(30.587769%,76.469421%,87.841797%);fill-opacity:1;"
         d="M 5.21875 33.105469 C 6.992188 33.042969 8.257812 32.28125 9.082031 30.828125 L 22.375 7.027344 C 22.816406 6.265625 23.007812 5.507812 23.007812 4.746094 C 23.007812 3.480469 22.5625 2.34375 21.679688 1.457031 C 20.730469 0.441406 19.589844 0 18.261719 0 C 17.375 0 16.550781 0.191406 15.792969 0.695312 C 15.03125 1.140625 14.460938 1.773438 14.019531 2.53125 L 0.726562 26.332031 C 0.472656 26.964844 0.28125 27.597656 0.28125 28.359375 C 0.28125 28.738281 0.347656 29.179688 0.472656 29.6875 C 0.851562 30.890625 1.613281 31.839844 2.6875 32.472656 C 3.449219 32.851562 4.269531 33.105469 5.09375 33.105469 Z M 5.21875 33.105469 "
         id="path104" />
    </g>
    <clipPath
       id="clip13">
      <rect
         x="0"
         y="0"
         width="29"
         height="10"
         id="rect107" />
    </clipPath>
    <g
       id="surface594"
       clip-path="url(#clip13)">
      <rect
         x="0"
         y="0"
         width="29"
         height="10"
         style="fill:rgb(0%,0%,0%);fill-opacity:0.8;stroke:none;"
         id="rect110" />
    </g>
    <mask
       id="mask6">
      <g
         filter="url(#alpha)"
         id="g115">
        <use
           xlink:href="#surface594"
           id="use113" />
      </g>
    </mask>
    <clipPath
       id="clip14">
      <rect
         x="0"
         y="0"
         width="29"
         height="10"
         id="rect118" />
    </clipPath>
    <g
       id="surface593"
       clip-path="url(#clip14)">
      <path
         style=" stroke:none;fill-rule:nonzero;fill:rgb(89.01825%,10.980225%,47.450256%);fill-opacity:1;"
         d="M 5.390625 0 C 3.871094 0 2.605469 0.695312 1.71875 2.027344 C 1.210938 2.847656 0.894531 3.734375 0.894531 4.746094 C 0.894531 5.824219 1.273438 6.835938 1.90625 7.722656 C 2.859375 8.863281 4.058594 9.496094 5.515625 9.496094 L 24.378906 9.496094 C 25.773438 9.429688 26.847656 8.925781 27.734375 7.914062 C 28.621094 7.027344 29 5.949219 29 4.746094 C 29 3.355469 28.492188 2.152344 27.417969 1.265625 C 26.59375 0.441406 25.582031 0 24.316406 0 Z M 5.390625 0 "
         id="path121" />
    </g>
    <clipPath
       id="clip15">
      <path
         d="M 111 78 L 115 78 L 115 81.539062 L 111 81.539062 Z M 111 78 "
         id="path124" />
    </clipPath>
    <clipPath
       id="clip16">
      <path
         d="M 116 64 L 137 64 L 137 81.539062 L 116 81.539062 Z M 116 64 "
         id="path127" />
    </clipPath>
    <clipPath
       id="clip17">
      <path
         d="M 138 64 L 148 64 L 148 81.539062 L 138 81.539062 Z M 138 64 "
         id="path130" />
    </clipPath>
    <clipPath
       id="clip18">
      <path
         d="M 150 64 L 162 64 L 162 81.539062 L 150 81.539062 Z M 150 64 "
         id="path133" />
    </clipPath>
    <clipPath
       id="clip19">
      <path
         d="M 162 64 L 174 64 L 174 81.539062 L 162 81.539062 Z M 162 64 "
         id="path136" />
    </clipPath>
    <clipPath
       id="clip20">
      <path
         d="M 175 64 L 179 64 L 179 81.539062 L 175 81.539062 Z M 175 64 "
         id="path139" />
    </clipPath>
    <clipPath
       id="clip21">
      <path
         d="M 180 64 L 190 64 L 190 81.539062 L 180 81.539062 Z M 180 64 "
         id="path142" />
    </clipPath>
    <clipPath
       id="clip22">
      <path
         d="M 191 64 L 201 64 L 201 81.539062 L 191 81.539062 Z M 191 64 "
         id="path145" />
    </clipPath>
  </defs>
  <g
     id="surface552">
    <path
       style=" stroke:none;fill-rule:nonzero;fill:rgb(0%,0%,0%);fill-opacity:1;"
       d="M 4.746094 0 L 4.683594 0 C 3.292969 0 2.089844 0.570312 1.140625 1.710938 C 0.378906 2.53125 0 3.542969 0 4.683594 L 0 28.863281 C 0.0625 29.75 0.378906 30.636719 0.886719 31.394531 C 1.835938 32.664062 3.101562 33.359375 4.746094 33.359375 C 5.886719 33.359375 6.835938 32.980469 7.722656 32.347656 C 8.863281 31.460938 9.496094 30.257812 9.496094 28.800781 L 9.496094 26.902344 L 28.992188 26.902344 C 30.128906 26.902344 31.144531 26.523438 32.027344 25.824219 C 33.167969 24.8125 33.738281 23.609375 33.738281 22.15625 C 33.738281 20.953125 33.359375 19.9375 32.597656 19.054688 C 31.648438 17.914062 30.445312 17.40625 28.992188 17.40625 L 9.496094 17.40625 L 9.496094 4.746094 C 9.496094 3.859375 9.683594 2.976562 10 2.152344 C 10.382812 1.265625 10.949219 0.570312 11.648438 0 Z M 4.746094 0 "
       id="path150" />
    <use
       xlink:href="#surface557"
       transform="matrix(1,0,0,1,10,0)"
       mask="url(#mask0)"
       id="use152" />
    <path
       style=" stroke:none;fill-rule:nonzero;fill:rgb(0%,0%,0%);fill-opacity:1;"
       d="M 4.746094 34.8125 C 2.847656 34.8125 1.265625 34.054688 0 32.664062 L 0 39.5625 C 0 40.828125 0.441406 41.96875 1.328125 42.917969 C 2.34375 43.804688 3.480469 44.308594 4.746094 44.308594 L 34.246094 44.308594 C 35.574219 44.308594 36.714844 43.804688 37.597656 42.917969 C 38.550781 41.96875 38.992188 40.828125 38.992188 39.5625 C 38.992188 38.296875 38.550781 37.15625 37.664062 36.269531 C 36.777344 35.320312 35.699219 34.8125 34.433594 34.8125 Z M 4.746094 34.8125 "
       id="path154" />
    <path
       style=" stroke:none;fill-rule:nonzero;fill:rgb(0%,0%,0%);fill-opacity:1;"
       d="M 48.738281 0 C 47.472656 0 46.398438 0.441406 45.449219 1.328125 C 44.5 2.214844 43.992188 3.355469 43.992188 4.746094 L 43.992188 17.722656 C 44.5 17.089844 45.132812 16.648438 45.828125 16.332031 C 46.714844 15.886719 47.664062 15.699219 48.675781 15.699219 L 48.804688 15.699219 C 49.816406 15.699219 50.703125 15.886719 51.589844 16.332031 C 52.347656 16.648438 52.980469 17.089844 53.488281 17.722656 C 53.613281 17.851562 53.742188 17.976562 53.804688 18.101562 L 74.503906 42.472656 C 75.453125 43.675781 76.71875 44.308594 78.238281 44.308594 C 79.628906 44.308594 80.832031 43.738281 81.78125 42.726562 C 82.605469 41.839844 82.984375 40.765625 82.984375 39.5625 L 82.984375 26.648438 C 82.476562 27.15625 81.84375 27.597656 81.085938 27.976562 C 80.199219 28.359375 79.25 28.609375 78.238281 28.609375 C 77.097656 28.609375 75.957031 28.292969 74.945312 27.789062 C 74.25 27.34375 73.617188 26.839844 73.109375 26.207031 L 52.285156 1.582031 C 51.839844 1.074219 51.273438 0.632812 50.640625 0.378906 C 50.070312 0.125 49.4375 0 48.738281 0 Z M 48.738281 0 "
       id="path156" />
    <use
       xlink:href="#surface563"
       transform="matrix(1,0,0,1,73,0)"
       mask="url(#mask1)"
       id="use158" />
    <path
       style=" stroke:none;fill-rule:nonzero;fill:rgb(0%,0%,0%);fill-opacity:1;"
       d="M 48.675781 17.027344 C 47.410156 17.027344 46.335938 17.40625 45.449219 18.230469 C 44.5625 19.054688 44.054688 20.066406 43.992188 21.269531 L 43.992188 39.5625 C 43.992188 40.574219 44.308594 41.523438 44.941406 42.410156 C 45.953125 43.675781 47.222656 44.308594 48.738281 44.308594 C 50.132812 44.308594 51.273438 43.804688 52.160156 42.851562 C 53.042969 41.96875 53.488281 40.828125 53.488281 39.5625 L 53.488281 21.269531 C 53.488281 19.558594 52.664062 18.292969 51.019531 17.535156 C 50.386719 17.152344 49.625 17.027344 48.804688 17.027344 Z M 48.675781 17.027344 "
       id="path160" />
    <path
       style=" stroke:none;fill-rule:nonzero;fill:rgb(0%,0%,0%);fill-opacity:1;"
       d="M 110.078125 0 C 106.089844 0 102.417969 0.949219 99 2.976562 C 95.582031 4.9375 92.984375 7.597656 90.960938 11.015625 C 89 14.433594 87.984375 18.101562 87.984375 22.15625 C 87.984375 26.140625 88.933594 29.8125 90.898438 33.230469 C 92.921875 36.648438 95.519531 39.308594 98.9375 41.335938 C 102.355469 43.296875 106.089844 44.308594 110.078125 44.308594 C 113.496094 44.308594 116.660156 43.613281 119.636719 42.15625 C 122.671875 40.636719 125.207031 38.675781 127.230469 36.144531 C 127.292969 36.015625 127.355469 35.953125 127.484375 35.828125 C 128.054688 35.003906 128.308594 34.117188 128.308594 33.230469 C 128.308594 32.726562 128.242188 32.21875 128.054688 31.777344 C 127.800781 30.761719 127.167969 30.003906 126.28125 29.371094 C 125.457031 28.738281 124.507812 28.421875 123.496094 28.421875 C 123.179688 28.421875 122.863281 28.421875 122.484375 28.546875 C 121.46875 28.738281 120.648438 29.242188 119.953125 30.003906 C 119.953125 30.066406 119.824219 30.195312 119.636719 30.445312 C 117.101562 33.359375 113.9375 34.8125 110.078125 34.8125 C 106.660156 34.8125 103.746094 33.613281 101.214844 31.144531 C 98.746094 28.609375 97.480469 25.636719 97.480469 22.15625 C 97.480469 18.609375 98.683594 15.699219 101.152344 13.230469 C 103.683594 10.699219 106.660156 9.496094 110.078125 9.496094 C 112.230469 9.496094 114.253906 10 116.089844 11.015625 C 116.027344 10.570312 115.964844 10.128906 115.964844 9.746094 C 115.964844 8.039062 116.53125 6.644531 117.671875 5.445312 C 118.875 4.179688 120.269531 3.542969 121.914062 3.480469 C 118.367188 1.140625 114.382812 0 110.078125 0 Z M 110.078125 0 "
       id="path162" />
    <use
       xlink:href="#surface569"
       transform="matrix(1,0,0,1,117,4)"
       mask="url(#mask2)"
       id="use164"
       style="fill:none;fill-opacity:1" />
    <path
       style=" stroke:none;fill-rule:nonzero;fill:rgb(0%,0%,0%);fill-opacity:1;"
       d="M 127.421875 17.535156 L 113.050781 17.535156 C 111.53125 17.535156 110.265625 18.101562 109.316406 19.371094 C 108.683594 20.191406 108.304688 21.140625 108.304688 22.28125 C 108.304688 23.292969 108.621094 24.242188 109.191406 25.066406 C 110.140625 26.332031 111.40625 27.027344 113.050781 27.027344 L 123.242188 27.027344 C 123.75 26.964844 124.253906 26.964844 124.761719 27.09375 C 125.648438 27.28125 126.40625 27.660156 127.105469 28.167969 C 127.738281 28.609375 128.308594 29.179688 128.6875 29.878906 C 129.257812 30.636719 129.574219 31.460938 129.699219 32.410156 C 131.34375 29.242188 132.167969 25.953125 132.167969 22.40625 L 132.167969 22.15625 C 132.167969 20.886719 131.726562 19.875 130.902344 18.988281 C 129.953125 17.976562 128.8125 17.535156 127.421875 17.535156 Z M 127.421875 17.535156 "
       id="path166" />
    <path
       style=" stroke:none;fill-rule:nonzero;fill:rgb(0%,0%,0%);fill-opacity:1;"
       d="M 141.980469 0 L 141.914062 0 C 140.523438 0 139.320312 0.507812 138.371094 1.644531 C 137.613281 2.53125 137.230469 3.542969 137.230469 4.683594 L 137.230469 11.457031 C 137.296875 12.53125 137.675781 13.484375 138.433594 14.367188 C 139.382812 15.382812 140.585938 15.953125 141.980469 15.953125 C 143.246094 15.953125 144.257812 15.507812 145.144531 14.75 C 146.21875 13.800781 146.726562 12.660156 146.726562 11.332031 L 146.726562 9.496094 L 160.019531 9.496094 C 160.96875 9.496094 161.792969 9.8125 162.425781 10.445312 C 163.375 11.203125 163.816406 12.214844 163.816406 13.417969 C 163.816406 14.75 163.3125 15.824219 162.234375 16.648438 C 161.601562 17.089844 160.90625 17.34375 160.082031 17.40625 L 144.195312 17.40625 L 141.980469 17.34375 C 141.03125 17.34375 140.144531 17.089844 139.257812 16.710938 C 138.496094 16.332031 137.800781 15.824219 137.230469 15.191406 L 137.230469 39.5625 C 137.230469 40.828125 137.675781 41.96875 138.5625 42.917969 C 139.574219 43.804688 140.714844 44.308594 141.980469 44.308594 C 143.371094 44.308594 144.574219 43.804688 145.460938 42.789062 C 146.347656 41.902344 146.726562 40.828125 146.726562 39.5625 L 146.726562 26.902344 L 154.957031 26.902344 C 155.082031 27.027344 155.144531 27.15625 155.207031 27.28125 L 155.273438 27.34375 L 165.210938 39.433594 C 165.273438 37.664062 165.96875 36.144531 167.234375 35.003906 C 168.4375 33.863281 169.832031 33.359375 171.476562 33.359375 C 171.855469 33.359375 172.234375 33.359375 172.550781 33.421875 L 165.96875 25.445312 C 167.363281 24.6875 168.566406 23.800781 169.578125 22.722656 C 172.109375 20.066406 173.3125 16.964844 173.3125 13.417969 C 173.3125 10 172.171875 7.027344 169.894531 4.496094 C 167.425781 1.710938 164.324219 0.191406 160.589844 0 Z M 141.980469 0 "
       id="path168" />
    <use
       xlink:href="#surface575"
       transform="matrix(1,0,0,1,166,34)"
       mask="url(#mask3)"
       id="use170" />
    <path
       style=" stroke:none;fill-rule:nonzero;fill:rgb(0%,0%,0%);fill-opacity:1;"
       d="M 205.46875 0 C 204.519531 0 203.632812 0.253906 202.808594 0.824219 C 202.113281 1.265625 201.542969 1.898438 201.164062 2.660156 L 196.984375 10.191406 C 197.683594 9.9375 198.378906 9.8125 199.136719 9.8125 L 199.769531 9.8125 C 200.59375 9.875 201.355469 10.128906 202.113281 10.507812 C 202.175781 10.507812 202.238281 10.570312 202.238281 10.632812 C 202.746094 10.886719 203.125 11.203125 203.503906 11.582031 C 203.949219 11.964844 204.328125 12.46875 204.582031 12.976562 L 220.722656 41.777344 C 221.167969 42.535156 221.734375 43.105469 222.496094 43.613281 C 223.253906 44.054688 224.078125 44.308594 224.964844 44.308594 C 226.230469 44.308594 227.371094 43.867188 228.253906 42.980469 C 229.269531 41.96875 229.710938 40.828125 229.710938 39.5625 C 229.710938 38.738281 229.523438 37.980469 229.078125 37.28125 L 209.710938 2.59375 C 209.390625 1.960938 208.949219 1.394531 208.316406 0.949219 C 207.9375 0.632812 207.492188 0.378906 206.988281 0.253906 C 206.542969 0.0625 206.039062 0 205.46875 0 Z M 205.46875 0 "
       id="path172" />
    <use
       xlink:href="#surface581"
       transform="matrix(1,0,0,1,181,11)"
       mask="url(#mask4)"
       id="use174" />
    <path
       style=" stroke:none;fill-rule:nonzero;fill:rgb(0%,0%,0%);fill-opacity:1;"
       d="M 243.765625 44.308594 C 244.777344 44.308594 245.664062 43.992188 246.421875 43.484375 C 247.117188 42.980469 247.625 42.410156 248.003906 41.652344 L 252.246094 34.117188 C 251.550781 34.371094 250.851562 34.496094 250.09375 34.496094 L 249.460938 34.496094 C 248.636719 34.371094 247.878906 34.179688 247.117188 33.800781 C 247.117188 33.738281 247.054688 33.675781 246.929688 33.675781 C 246.550781 33.421875 246.105469 33.105469 245.726562 32.789062 C 245.347656 32.347656 244.964844 31.839844 244.648438 31.332031 L 228.507812 2.53125 C 228.128906 1.773438 227.496094 1.140625 226.738281 0.695312 C 225.976562 0.191406 225.152344 0 224.269531 0 C 223 0 221.863281 0.441406 220.914062 1.394531 C 220.027344 2.277344 219.519531 3.417969 219.519531 4.746094 C 219.519531 5.507812 219.710938 6.265625 220.089844 7.027344 L 239.523438 41.714844 C 239.902344 42.347656 240.347656 42.851562 240.851562 43.359375 C 241.296875 43.613281 241.738281 43.867188 242.179688 44.054688 C 242.6875 44.183594 243.257812 44.308594 243.765625 44.308594 Z M 243.765625 44.308594 "
       id="path176" />
    <use
       xlink:href="#surface587"
       transform="matrix(1,0,0,1,245,0)"
       mask="url(#mask5)"
       id="use178" />
    <path
       style=" stroke:none;fill-rule:nonzero;fill:rgb(0%,0%,0%);fill-opacity:1;"
       d="M 277.753906 0 L 277.691406 0 C 276.300781 0 275.097656 0.570312 274.148438 1.710938 C 273.386719 2.53125 273.007812 3.542969 273.007812 4.683594 L 273.007812 28.863281 C 273.070312 29.75 273.386719 30.636719 273.894531 31.394531 C 274.84375 32.664062 276.109375 33.359375 277.753906 33.359375 C 278.894531 33.359375 279.84375 32.980469 280.730469 32.347656 C 281.871094 31.460938 282.503906 30.257812 282.503906 28.800781 L 282.503906 26.902344 L 302 26.902344 C 303.136719 26.902344 304.152344 26.523438 305.039062 25.824219 C 306.175781 24.8125 306.746094 23.609375 306.746094 22.15625 C 306.746094 20.953125 306.367188 19.9375 305.605469 19.054688 C 304.65625 17.914062 303.453125 17.40625 302 17.40625 L 282.503906 17.40625 L 282.503906 4.746094 C 282.503906 3.859375 282.691406 2.976562 283.007812 2.152344 C 283.390625 1.265625 283.957031 0.570312 284.65625 0 Z M 277.753906 0 "
       id="path180" />
    <use
       xlink:href="#surface593"
       transform="matrix(1,0,0,1,283,0)"
       mask="url(#mask6)"
       id="use182" />
    <path
       style=" stroke:none;fill-rule:nonzero;fill:rgb(0%,0%,0%);fill-opacity:1;"
       d="M 277.753906 34.8125 C 275.855469 34.8125 274.273438 34.054688 273.007812 32.664062 L 273.007812 39.5625 C 273.007812 40.828125 273.449219 41.96875 274.335938 42.917969 C 275.351562 43.804688 276.488281 44.308594 277.753906 44.308594 L 307.253906 44.308594 C 308.582031 44.308594 309.722656 43.804688 310.605469 42.917969 C 311.558594 41.96875 312 40.828125 312 39.5625 C 312 38.296875 311.558594 37.15625 310.671875 36.269531 C 309.785156 35.320312 308.707031 34.8125 307.441406 34.8125 Z M 277.753906 34.8125 "
       id="path184" />
    <g
       clip-path="url(#clip15)"
       clip-rule="nonzero"
       id="g188">
      <path
         style=" stroke:none;fill-rule:nonzero;fill:rgb(0%,0%,0%);fill-opacity:1;"
         d="M 111.941406 78.347656 L 114.953125 78.347656 L 114.953125 81.246094 L 111.941406 81.246094 Z M 111.941406 78.347656 "
         id="path186" />
    </g>
    <g
       clip-path="url(#clip16)"
       clip-rule="nonzero"
       id="g192">
      <path
         style=" stroke:none;fill-rule:nonzero;fill:rgb(0%,0%,0%);fill-opacity:1;"
         d="M 136.976562 64.519531 L 133.808594 64.519531 L 130.84375 76.199219 L 128.035156 64.519531 L 125.773438 64.519531 L 122.921875 76.199219 L 119.976562 64.519531 L 116.808594 64.519531 L 121.722656 81.246094 L 124.164062 81.246094 L 126.925781 70.175781 L 129.621094 81.246094 L 132.085938 81.246094 Z M 136.976562 64.519531 "
         id="path190" />
    </g>
    <g
       clip-path="url(#clip17)"
       clip-rule="nonzero"
       id="g196">
      <path
         style=" stroke:none;fill-rule:nonzero;fill:rgb(0%,0%,0%);fill-opacity:1;"
         d="M 147.546875 81.246094 L 147.546875 78.28125 L 141.660156 78.28125 L 141.660156 74.386719 L 147.296875 74.386719 L 147.296875 71.421875 L 141.660156 71.421875 L 141.660156 67.484375 L 147.546875 67.484375 L 147.546875 64.519531 L 138.558594 64.519531 L 138.558594 81.246094 Z M 147.546875 81.246094 "
         id="path194" />
    </g>
    <g
       clip-path="url(#clip18)"
       clip-rule="nonzero"
       id="g200">
      <path
         style=" stroke:none;fill-rule:nonzero;fill:rgb(0%,0%,0%);fill-opacity:1;"
         d="M 161.195312 76.265625 C 161.195312 74.273438 160.46875 73.007812 158.34375 72.125 C 159.679688 71.421875 160.199219 70.539062 160.199219 68.976562 C 160.199219 67.414062 159.496094 66.101562 158.296875 65.332031 C 157.300781 64.699219 156.261719 64.519531 153.769531 64.519531 L 150.332031 64.519531 L 150.332031 81.246094 L 154.789062 81.246094 C 159.089844 81.246094 161.195312 79.320312 161.195312 76.265625 Z M 158.070312 76.199219 C 158.070312 77.644531 157.144531 78.28125 154.96875 78.28125 L 153.429688 78.28125 L 153.429688 74.003906 L 154.902344 74.003906 C 157.050781 74.003906 158.070312 74.703125 158.070312 76.199219 Z M 157.097656 69.25 C 157.097656 70.449219 156.304688 70.96875 154.425781 70.96875 L 153.429688 70.96875 L 153.429688 67.550781 L 154.699219 67.550781 C 156.304688 67.550781 157.097656 68.09375 157.097656 69.25 Z M 157.097656 69.25 "
         id="path198" />
    </g>
    <g
       clip-path="url(#clip19)"
       clip-rule="nonzero"
       id="g204">
      <path
         style=" stroke:none;fill-rule:nonzero;fill:rgb(0%,0%,0%);fill-opacity:1;"
         d="M 173.078125 76.175781 C 173.078125 73.910156 172.148438 72.441406 168.753906 71.171875 C 167.167969 70.585938 167.125 70.5625 166.898438 70.425781 C 166.289062 70.042969 165.96875 69.519531 165.96875 68.910156 C 165.96875 67.914062 166.671875 67.210938 167.691406 67.210938 C 168.730469 67.210938 169.367188 67.84375 169.457031 68.976562 L 172.671875 68.976562 C 172.511719 66.035156 170.40625 64.222656 167.714844 64.222656 C 165.019531 64.222656 162.847656 66.328125 162.847656 68.976562 C 162.847656 71.082031 164.089844 72.6875 166.332031 73.527344 C 168.550781 74.363281 168.730469 74.433594 169.230469 74.816406 C 169.726562 75.203125 170 75.835938 170 76.515625 C 170 77.714844 169.070312 78.550781 167.734375 78.550781 C 166.355469 78.550781 165.609375 77.871094 165.472656 76.46875 L 162.234375 76.46875 C 162.507812 79.636719 164.792969 81.539062 167.734375 81.539062 C 170.746094 81.539062 173.078125 79.207031 173.078125 76.175781 Z M 173.078125 76.175781 "
         id="path202" />
    </g>
    <g
       clip-path="url(#clip20)"
       clip-rule="nonzero"
       id="g208">
      <path
         style=" stroke:none;fill-rule:nonzero;fill:rgb(0%,0%,0%);fill-opacity:1;"
         d="M 175.226562 64.519531 L 178.328125 64.519531 L 178.328125 81.246094 L 175.226562 81.246094 Z M 175.226562 64.519531 "
         id="path206" />
    </g>
    <g
       clip-path="url(#clip21)"
       clip-rule="nonzero"
       id="g212">
      <path
         style=" stroke:none;fill-rule:nonzero;fill:rgb(0%,0%,0%);fill-opacity:1;"
         d="M 189.488281 67.484375 L 189.488281 64.519531 L 180.183594 64.519531 L 180.183594 67.484375 L 183.285156 67.484375 L 183.285156 81.246094 L 186.386719 81.246094 L 186.386719 67.484375 Z M 189.488281 67.484375 "
         id="path210" />
    </g>
    <g
       clip-path="url(#clip22)"
       clip-rule="nonzero"
       id="g216">
      <path
         style=" stroke:none;fill-rule:nonzero;fill:rgb(0%,0%,0%);fill-opacity:1;"
         d="M 200.058594 81.246094 L 200.058594 78.28125 L 194.171875 78.28125 L 194.171875 74.386719 L 199.808594 74.386719 L 199.808594 71.421875 L 194.171875 71.421875 L 194.171875 67.484375 L 200.058594 67.484375 L 200.058594 64.519531 L 191.070312 64.519531 L 191.070312 81.246094 Z M 200.058594 81.246094 "
         id="path214" />
    </g>
  </g>
</svg>
